<svg width="316" height="387" viewBox="0 0 316 387" fill="none" xmlns="http://www.w3.org/2000/svg">
<circle cx="5.89939" cy="6.04587" r="5.89939" fill="#E6E6E6"/>
<circle cx="5.89939" cy="44.0642" r="5.89939" fill="#E6E6E6"/>
<circle cx="157.973" cy="6.04587" r="5.89939" fill="#E6E6E6"/>
<circle cx="157.973" cy="44.0642" r="5.89939" fill="#E6E6E6"/>
<circle cx="310.046" cy="6.04587" r="5.89939" fill="#E6E6E6"/>
<circle cx="310.046" cy="44.0642" r="5.89939" fill="#E6E6E6"/>
<circle cx="81.936" cy="6.04587" r="5.89939" fill="#E6E6E6"/>
<circle cx="81.936" cy="44.0642" r="5.89939" fill="#E6E6E6"/>
<circle cx="234.009" cy="6.04587" r="5.89939" fill="#E6E6E6"/>
<circle cx="234.009" cy="44.0642" r="5.89939" fill="#E6E6E6"/>
<circle cx="43.9177" cy="6.04587" r="5.89939" fill="#E6E6E6"/>
<circle cx="43.9177" cy="44.0642" r="5.89939" fill="#E6E6E6"/>
<circle cx="195.991" cy="6.04587" r="5.89939" fill="#E6E6E6"/>
<circle cx="195.991" cy="44.0642" r="5.89939" fill="#E6E6E6"/>
<circle cx="119.954" cy="6.04587" r="5.89939" fill="#E6E6E6"/>
<circle cx="119.954" cy="44.0642" r="5.89939" fill="#E6E6E6"/>
<circle cx="272.027" cy="6.04587" r="5.89939" fill="#E6E6E6"/>
<circle cx="272.027" cy="44.0642" r="5.89939" fill="#E6E6E6"/>
<circle cx="309.982" cy="76.8354" r="5.89939" transform="rotate(90 309.982 76.8354)" fill="#E6E6E6"/>
<circle cx="271.963" cy="76.8354" r="5.89939" transform="rotate(90 271.963 76.8354)" fill="#E6E6E6"/>
<circle cx="309.982" cy="228.909" r="5.89939" transform="rotate(90 309.982 228.909)" fill="#E6E6E6"/>
<circle cx="271.963" cy="228.909" r="5.89939" transform="rotate(90 271.963 228.909)" fill="#E6E6E6"/>
<circle cx="309.982" cy="380.982" r="5.89939" transform="rotate(90 309.982 380.982)" fill="#E6E6E6"/>
<circle cx="271.963" cy="380.982" r="5.89939" transform="rotate(90 271.963 380.982)" fill="#E6E6E6"/>
<circle cx="309.982" cy="152.872" r="5.89939" transform="rotate(90 309.982 152.872)" fill="#E6E6E6"/>
<circle cx="271.963" cy="152.872" r="5.89939" transform="rotate(90 271.963 152.872)" fill="#E6E6E6"/>
<circle cx="309.982" cy="304.945" r="5.89939" transform="rotate(90 309.982 304.945)" fill="#E6E6E6"/>
<circle cx="271.963" cy="304.945" r="5.89939" transform="rotate(90 271.963 304.945)" fill="#E6E6E6"/>
<circle cx="309.982" cy="114.854" r="5.89939" transform="rotate(90 309.982 114.854)" fill="#E6E6E6"/>
<circle cx="271.963" cy="114.854" r="5.89939" transform="rotate(90 271.963 114.854)" fill="#E6E6E6"/>
<circle cx="309.982" cy="266.927" r="5.89939" transform="rotate(90 309.982 266.927)" fill="#E6E6E6"/>
<circle cx="271.963" cy="266.927" r="5.89939" transform="rotate(90 271.963 266.927)" fill="#E6E6E6"/>
<circle cx="309.982" cy="190.89" r="5.89939" transform="rotate(90 309.982 190.89)" fill="#E6E6E6"/>
<circle cx="271.963" cy="190.89" r="5.89939" transform="rotate(90 271.963 190.89)" fill="#E6E6E6"/>
<circle cx="309.982" cy="342.963" r="5.89939" transform="rotate(90 309.982 342.963)" fill="#E6E6E6"/>
<circle cx="271.963" cy="342.963" r="5.89939" transform="rotate(90 271.963 342.963)" fill="#E6E6E6"/>
</svg>
